#N canvas 65 67 1335 765 10;
#X obj -143 -35 abstraction/pd_channel_mod;
#X obj -143 -56 receive~ channel1;
#X obj 521 -56 receive~ channel2;
#X obj 521 210 send~ output2;
#X obj 521 499 send~ output4;
#X obj -35 -55 cnv 15 100 15 empty empty CHANNEL_1 8 6 0 16 -262144
-66577 0;
#X obj 632 -55 cnv 15 100 15 empty empty CHANNEL_2 8 6 0 16 -262144
-66577 0;
#X obj -33 234 cnv 15 100 15 empty empty CHANNEL_3 8 6 0 16 -262144
-66577 0;
#X obj 634 234 cnv 15 100 15 empty empty CHANNEL_4 8 6 0 16 -262144
-66577 0;
#X obj 431 -52 r transpose1;
#X obj 431 236 r transpose3;
#X obj 1095 -51 r transpose2;
#X obj 1095 236 r transpose4;
#X obj 521 -34 abstraction/pd_channel_mod;
#X obj -143 253 abstraction/pd_channel_mod;
#X obj 521 253 abstraction/pd_channel_mod;
#X obj 391 -52 r amp1;
#X obj 1055 -51 r amp2;
#X obj 391 236 r amp3;
#X obj 1055 236 r amp4;
#X obj -138 526 cnv 15 630 110 empty empty empty 20 12 0 14 -233017
-66577 0;
#X obj -134 541 cnv 15 100 15 empty empty CHANNEL_5 8 6 0 16 -228856
-66577 0;
#X obj 178 541 cnv 15 100 15 empty empty CHANNEL_6 8 6 0 16 -228856
-66577 0;
#X obj -125 559 abstraction/selection-looper;
#X obj -125 670 s~ output6;
#X obj 185 645 s~ output7;
#X obj 185 667 s~ output8;
#X obj -143 232 receive~ channel3;
#X obj 521 231 receive~ channel4;
#X obj 185 559 abstraction/selection-looper;
#X obj -126 505 r amp5;
#X obj 185 505 r amp6;
#N canvas 652 98 913 731 midi_control 0;
#X obj -14 19 ctlin;
#X obj -14 43 pack f f;
#X floatatom -175 108 5 0 127 0 - - -;
#X floatatom -175 153 5 0 0 0 - - -;
#X obj -175 174 - 36;
#X floatatom -175 198 5 0 0 0 - - -;
#X obj -175 130 / 1.7638;
#X floatatom -117 108 5 0 127 0 - - -;
#X floatatom -117 153 5 0 0 0 - - -;
#X obj -117 174 - 36;
#X floatatom -117 198 5 0 0 0 - - -;
#X obj -117 130 / 1.7638;
#X floatatom -58 107 5 0 127 0 - - -;
#X floatatom -58 152 5 0 0 0 - - -;
#X obj -58 173 - 36;
#X floatatom -58 197 5 0 0 0 - - -;
#X obj -58 129 / 1.7638;
#X floatatom 2 106 5 0 127 0 - - -;
#X floatatom 2 151 5 0 0 0 - - -;
#X obj 2 172 - 36;
#X floatatom 2 196 5 0 0 0 - - -;
#X obj 2 128 / 1.7638;
#X obj -175 222 s transpose1;
#X obj -117 245 s transpose2;
#X obj -58 221 s transpose3;
#X obj 2 246 s transpose4;
#X floatatom 62 106 5 0 127 0 - - -;
#X floatatom 62 151 5 0 0 0 - - -;
#X obj 62 128 / 101.6;
#X floatatom 112 106 5 0 127 0 - - -;
#X floatatom 112 151 5 0 0 0 - - -;
#X obj 112 128 / 101.6;
#X floatatom 162 106 5 0 127 0 - - -;
#X floatatom 162 151 5 0 0 0 - - -;
#X obj 162 128 / 101.6;
#X floatatom 212 106 5 0 127 0 - - -;
#X floatatom 212 151 5 0 0 0 - - -;
#X obj 212 128 / 101.6;
#X obj 62 177 s amp1;
#X obj 112 176 s amp2;
#X obj 162 176 s amp3;
#X obj 212 175 s amp4;
#X floatatom 266 105 5 0 127 0 - - -;
#X floatatom 266 150 5 0 0 0 - - -;
#X obj 266 127 / 101.6;
#X floatatom 317 105 5 0 127 0 - - -;
#X floatatom 317 150 5 0 0 0 - - -;
#X obj 317 127 / 101.6;
#X obj -14 68 route 94 95 96 97 98 99 90 100 101 102;
#X obj 266 174 s amp5;
#X obj 317 174 s amp6;
#X text 263 84 channel 5 and 6;
#X connect 0 0 1 1;
#X connect 0 1 1 0;
#X connect 1 0 48 0;
#X connect 2 0 6 0;
#X connect 3 0 4 0;
#X connect 4 0 5 0;
#X connect 5 0 22 0;
#X connect 6 0 3 0;
#X connect 7 0 11 0;
#X connect 8 0 9 0;
#X connect 9 0 10 0;
#X connect 10 0 23 0;
#X connect 11 0 8 0;
#X connect 12 0 16 0;
#X connect 13 0 14 0;
#X connect 14 0 15 0;
#X connect 15 0 24 0;
#X connect 16 0 13 0;
#X connect 17 0 21 0;
#X connect 18 0 19 0;
#X connect 19 0 20 0;
#X connect 20 0 25 0;
#X connect 21 0 18 0;
#X connect 26 0 28 0;
#X connect 27 0 38 0;
#X connect 28 0 27 0;
#X connect 29 0 31 0;
#X connect 30 0 39 0;
#X connect 31 0 30 0;
#X connect 32 0 34 0;
#X connect 33 0 40 0;
#X connect 34 0 33 0;
#X connect 35 0 37 0;
#X connect 36 0 41 0;
#X connect 37 0 36 0;
#X connect 42 0 44 0;
#X connect 43 0 49 0;
#X connect 44 0 43 0;
#X connect 45 0 47 0;
#X connect 46 0 50 0;
#X connect 47 0 46 0;
#X connect 48 0 2 0;
#X connect 48 1 7 0;
#X connect 48 2 12 0;
#X connect 48 3 17 0;
#X connect 48 4 26 0;
#X connect 48 5 29 0;
#X connect 48 6 32 0;
#X connect 48 7 35 0;
#X connect 48 8 42 0;
#X connect 48 9 45 0;
#X restore 522 550 pd midi_control;
#N canvas 204 146 450 300 sound_routing 0;
#X obj -211 104 s~ channel1;
#X obj -211 128 s~ channel2;
#X obj -211 151 s~ channel3;
#X obj -211 175 s~ channel4;
#X obj -133 46 receive~ output1;
#X obj -117 66 receive~ output2;
#X obj -100 87 receive~ output3;
#X obj -83 109 receive~ output4;
#X obj -133 136 dac~ 1 2 3 4 5 6 7 8;
#X obj -222 46 send~ output3;
#X obj -217 68 adc~ 1 2 3 4;
#X obj -67 160 receive~ output5;
#X obj -50 180 receive~ output6;
#X obj -33 201 receive~ output7;
#X obj -16 223 receive~ output8;
#X connect 4 0 8 0;
#X connect 5 0 8 1;
#X connect 6 0 8 2;
#X connect 7 0 8 3;
#X connect 10 0 0 0;
#X connect 10 1 1 0;
#X connect 10 2 2 0;
#X connect 10 3 3 0;
#X connect 11 0 8 4;
#X connect 12 0 8 5;
#X connect 13 0 8 6;
#X connect 14 0 8 7;
#X restore 521 529 pd sound_routing;
#X obj -125 648 s~ output5;
#X obj -143 211 send~ output1;
#X connect 0 0 35 0;
#X connect 1 0 0 0;
#X connect 2 0 13 0;
#X connect 9 0 0 1;
#X connect 10 0 14 1;
#X connect 11 0 13 1;
#X connect 12 0 15 1;
#X connect 13 0 3 0;
#X connect 15 0 4 0;
#X connect 16 0 0 2;
#X connect 17 0 13 2;
#X connect 18 0 14 2;
#X connect 19 0 15 2;
#X connect 23 0 24 0;
#X connect 23 0 34 0;
#X connect 27 0 14 0;
#X connect 28 0 15 0;
#X connect 29 0 25 0;
#X connect 29 0 26 0;
#X connect 30 0 23 0;
#X connect 31 0 29 0;
