#N canvas 420 69 417 307 10;
#X obj 73 115 inlet~;
#X obj 73 208 outlet~;
#X obj 128 72 inlet;
#X obj 73 178 *~;
#X obj 128 138 line~;
#X obj 128 115 pack 0 50;
#X obj 128 93 dbtorms;
#X connect 0 0 3 0;
#X connect 2 0 6 0;
#X connect 3 0 1 0;
#X connect 4 0 3 1;
#X connect 5 0 4 0;
#X connect 6 0 5 0;
