#N canvas 101 106 361 243 10;
#X obj 73 125 inlet~;
#X obj 73 212 outlet~;
#X obj 140 124 inlet~;
#X obj 140 211 outlet~;
#X obj 199 64 inlet;
#X obj 73 186 *~;
#X obj 199 153 line~;
#X obj 140 186 *~;
#X obj 199 105 dbtorms;
#X text 27 71 a simple stereo-fader;
#X obj 199 130 pack 0 \$1;
#X connect 0 0 5 0;
#X connect 2 0 7 0;
#X connect 4 0 8 0;
#X connect 5 0 1 0;
#X connect 6 0 7 1;
#X connect 6 0 5 1;
#X connect 7 0 3 0;
#X connect 8 0 10 0;
#X connect 10 0 6 0;
