#N canvas 388 423 522 389 12;
#X obj 65 277 hip~ 5;
#X text 154 49 <-- delay time;
#X text 301 233 write to delay line;
#X text 282 87 read from delay line;
#X text 102 191 add the original and the delayed signal;
#X obj 66 190 +~;
#X obj 107 158 *~ 0.7;
#X text 170 159 feedback gain;
#X obj 460 119 / 100;
#X obj 16 50 inlet~;
#X obj 99 49 inlet;
#X obj 469 55 inlet;
#X obj 66 325 outlet~;
#X obj 106 88 delread~ \$0-delay1 160;
#X obj 102 232 delwrite~ \$0-delay1 2000;
#X connect 0 0 12 0;
#X connect 5 0 0 0;
#X connect 5 0 14 0;
#X connect 6 0 5 1;
#X connect 8 0 6 1;
#X connect 9 0 5 0;
#X connect 10 0 13 0;
#X connect 11 0 8 0;
#X connect 13 0 6 0;
