#N canvas 698 401 387 326 12;
#X obj 315 76 osc~;
#X obj 315 11 inlet;
#X obj 75 15 inlet~;
#X obj 140 250 outlet~;
#X obj 224 11 inlet;
#X obj 253 80 / 100;
#X obj 26 161 *~;
#X obj 268 120 *~;
#X obj 269 168 *~;
#X obj 99 77 * -1;
#X obj 85 106 + 100;
#X obj 83 133 / 100;
#X obj 139 217 +~;
#X connect 0 0 7 1;
#X connect 1 0 0 0;
#X connect 2 0 6 0;
#X connect 2 0 8 0;
#X connect 4 0 5 0;
#X connect 4 0 9 0;
#X connect 5 0 7 0;
#X connect 6 0 12 0;
#X connect 7 0 8 1;
#X connect 8 0 12 1;
#X connect 9 0 10 0;
#X connect 10 0 11 0;
#X connect 11 0 6 1;
#X connect 12 0 3 0;
