#N canvas 291 177 587 529 10;
#X obj 50 462 hip~ 5;
#X obj 109 340 *~;
#X obj 198 277 line~;
#X obj 210 241 pack 0 200;
#X obj 284 142 moses 1;
#X msg 239 142 1;
#X obj 50 144 exp;
#X obj 50 249 /;
#X obj 166 186 * 0.001;
#X obj 368 344 line~;
#X obj 369 318 pack 0 200;
#X obj 109 364 +~;
#X msg 369 294 1;
#X obj 369 270 moses 1.5;
#X obj 50 387 cos~;
#X obj 50 411 *~;
#X obj 50 438 +~;
#X obj 129 302 wrap~;
#X obj 252 340 *~;
#X obj 252 370 +~;
#X obj 195 395 cos~;
#X obj 195 419 *~;
#X obj 166 210 t b f;
#X floatatom 50 273 0 0 0 0 - - -;
#X obj 50 298 phasor~ 0;
#X obj 129 278 +~ 0.5;
#X obj 50 339 -~ 0.5;
#X obj 50 363 *~ 0.5;
#X obj 195 339 -~ 0.5;
#X obj 195 369 *~ 0.5;
#X floatatom 239 166 0 0 0 0 - - -;
#X obj 50 192 - 1;
#X obj 50 120 * 0.05776;
#X obj 50 216 * -1;
#X text 91 78 <-- transposition;
#X text 120 94 (halftones);
#X text 116 163 speed;
#X text 115 176 change;
#X text 309 114 <--window (msec);
#X text 82 243 tape head;
#X text 83 255 rotation speed;
#X obj -11 21 inlet~;
#X obj 50 483 outlet~;
#X obj 50 79 inlet;
#X obj 264 117 inlet;
#X obj 367 239 inlet;
#X text 410 237 <--delay (msec);
#X text 106 -14 HARMONIZER;
#X obj -12 47 delwrite~ \$0-\$1 2000;
#X obj 109 387 vd~ \$0-\$1;
#X obj 252 397 vd~ \$0-\$1;
#X connect 0 0 42 0;
#X connect 1 0 11 0;
#X connect 2 0 1 1;
#X connect 2 0 18 1;
#X connect 3 0 2 0;
#X connect 4 0 5 0;
#X connect 4 1 30 0;
#X connect 5 0 30 0;
#X connect 6 0 31 0;
#X connect 7 0 23 0;
#X connect 8 0 22 0;
#X connect 9 0 11 1;
#X connect 9 0 19 1;
#X connect 10 0 9 0;
#X connect 11 0 49 0;
#X connect 12 0 10 0;
#X connect 13 0 12 0;
#X connect 13 1 10 0;
#X connect 14 0 15 0;
#X connect 15 0 16 0;
#X connect 16 0 0 0;
#X connect 17 0 18 0;
#X connect 17 0 28 0;
#X connect 18 0 19 0;
#X connect 19 0 50 0;
#X connect 20 0 21 0;
#X connect 21 0 16 1;
#X connect 22 0 7 0;
#X connect 22 1 7 1;
#X connect 23 0 24 0;
#X connect 24 0 1 0;
#X connect 24 0 26 0;
#X connect 24 0 25 0;
#X connect 25 0 17 0;
#X connect 26 0 27 0;
#X connect 27 0 14 0;
#X connect 28 0 29 0;
#X connect 29 0 20 0;
#X connect 30 0 3 0;
#X connect 30 0 8 0;
#X connect 31 0 33 0;
#X connect 32 0 6 0;
#X connect 33 0 7 0;
#X connect 41 0 48 0;
#X connect 43 0 32 0;
#X connect 44 0 4 0;
#X connect 45 0 13 0;
#X connect 49 0 15 1;
#X connect 50 0 21 1;
