#N canvas 0 22 1440 852 10;
#X text 433 118 HARMONIZER;
#X floatatom 787 558 5 0 0 0 - - -;
#X floatatom 738 559 5 0 100 0 - - -;
#X text 688 522 Depth (%) \, Frequency;
#X obj 433 305 bng 15 250 50 0 empty empty empty 0 -6 0 8 -257985 -1
-1;
#X obj 500 305 bng 15 250 50 0 empty empty empty 0 -6 0 8 -257985 -1
-1;
#X obj 548 305 bng 15 250 50 0 empty empty empty 0 -6 0 8 -257985 -1
-1;
#X msg 654 544 50;
#X text 451 304 Slight;
#X text 566 304 Crazy;
#X text 518 304 Low;
#X msg 652 600 100;
#X obj 506 12 loadbang;
#X obj 711 599 effect-trem;
#X floatatom 695 419 5 0 0 0 - - -;
#X floatatom 757 421 5 0 100 0 - - -;
#X text 19 536 Delay (ms) \, Feedback %;
#X obj 435 244 bng 15 250 50 0 empty empty empty 0 -6 0 8 -4160 -1
-1;
#X obj 435 265 bng 15 250 50 0 empty empty empty 0 -6 0 8 -4160 -1
-1;
#X obj 605 245 bng 15 250 50 0 empty empty empty 0 -6 0 8 -4160 -1
-1;
#X msg 843 401 20;
#X msg 841 424 50;
#X obj 605 222 bng 15 250 50 0 empty empty empty 0 -6 0 8 -4160 -1
-1;
#X obj 426 13 loadbang;
#X obj 706 626 effect-delay;
#X obj 435 222 bng 15 250 50 0 empty empty empty 0 -6 0 8 -4160 -1
-1;
#X msg 844 376 0;
#X text 454 220 without delay;
#X obj 42 719 harmonizer _________;
#X floatatom 47 647 5 0 0 0 - - -;
#X floatatom 105 648 5 0 0 0 - - -;
#X floatatom 164 648 5 0 0 0 - - -;
#X text 42 671 transpose window delay;
#X obj 10 559 loadbang;
#X msg 62 594 0;
#X msg 13 592 100;
#X obj 434 138 bng 15 250 50 0 empty empty empty 0 -6 0 8 -258699 -1
-1;
#X obj 624 138 bng 15 250 50 0 empty empty empty 0 -6 0 8 -258699 -1
-1;
#X obj 624 160 bng 15 250 50 0 empty empty empty 0 -6 0 8 -258699 -1
-1;
#X text 642 135 +1 Octave;
#X text 642 156 +2 Octaves;
#X obj 624 182 bng 15 250 50 0 empty empty empty 0 -6 0 8 -258699 -1
-1;
#X text 642 177 -1 Octave;
#X msg 391 569 0;
#X msg 111 564 0;
#X msg 341 550 12;
#X msg 339 583 24;
#X msg 339 616 -12;
#X obj 524 182 bng 15 250 50 0 empty empty empty 0 -6 0 8 -258699 -1
-1;
#X obj 434 182 bng 15 250 50 0 empty empty empty 0 -6 0 8 -258699 -1
-1;
#X text 452 182 Tone;
#X obj 434 160 bng 15 250 50 0 empty empty empty 0 -6 0 8 -258699 -1
-1;
#X text 452 159 Half Tone;
#X msg 109 596 1;
#X msg 205 606 7;
#X obj 524 160 bng 15 250 50 0 empty empty empty 0 -6 0 8 -258699 -1
-1;
#X obj 524 138 bng 15 250 50 0 empty empty empty 0 -6 0 8 -258699 -1
-1;
#X text 542 137 Minor Third;
#X text 542 159 Major Third;
#X msg 161 596 3;
#X msg 200 563 4;
#X text 542 181 Fifth;
#X obj 194 20 rev-cheep _________________;
#X obj 217 138 hsl 128 15 0 100 0 0 empty empty empty -2 -6 0 8 -44926
-1 -1 11430 1;
#X obj 217 159 hsl 128 15 0 100 0 0 empty empty empty -2 -6 0 8 -44926
-1 -1 11430 1;
#X obj 217 180 hsl 128 15 0 100 0 0 empty empty empty -2 -6 0 8 -44926
-1 -1 10160 1;
#X obj 217 201 hsl 128 15 0 100 0 0 empty empty empty -2 -6 0 8 -44926
-1 -1 8890 1;
#X obj 217 222 hsl 128 15 0 100 0 0 empty empty empty -2 -6 0 8 -44926
-1 -1 11430 1;
#X obj 217 243 hsl 128 15 0 100 0 0 empty empty empty -2 -6 0 8 -44926
-1 -1 10795 1;
#X obj 217 264 hsl 128 15 0 100 0 0 empty empty empty -2 -6 0 8 -44926
-1 -1 12700 1;
#X msg 121 427 90;
#X msg 114 455 90;
#X msg 188 426 80;
#X msg 188 450 70;
#X msg 234 391 90;
#X msg 235 421 85;
#X msg 235 450 100;
#X obj 102 378 loadbang;
#X text 348 157 long;
#X text 348 177 reverb;
#X text 348 197 lopass filter;
#X text 348 217 reverb time;
#X text 348 237 room size;
#X text 348 257 output level;
#X text 348 137 short;
#X obj 214 285 bng 15 250 50 0 empty empty empty 0 -6 0 8 -4032 -1
-1;
#X text 432 284 RING MODULATOR;
#X text 432 203 DELAY;
#X text 453 242 slapback (20ms \, 50% FB);
#X text 211 118 REVERB;
#X text 452 137 Normal;
#N canvas 503 121 670 542 ARGO 0;
#X obj 1 0 cnv 20 36 131 empty ColorAmpli empty 20 12 0 14 -261299
-1 1.04858e+06;
#X obj 73 332 outlet~;
#X obj 73 -75 inlet~;
#X obj 73 303 *~;
#X obj 88 236 pow~ 10000;
#X obj 88 270 /~ 10000;
#X msg 229 232 label \$1;
#X obj 279 58 tosymbol;
#X obj 280 -41 * 80;
#X obj 280 -19 - 80;
#X obj 279 23 sprintf %ddB;
#X obj 2 1 cnv 4 10 4 empty empty empty 20 12 0 14 -1 -66577 0;
#X obj 2 31 cnv 4 10 4 empty empty empty 20 12 0 14 -1 -66577 0;
#X text 288 40 -> -80dB..20dB;
#X text 285 4 -> -80 .. 20;
#X text 162 37 -> 0..1.2;
#X text 97 252 -> 1..100000;
#X text 97 286 -> 0.0001..10 = -80dB..20dB;
#X obj 6 23 vsl 15 100 0 1.25 0 0 \$0-A empty -15dB 0 -9 0 10 -262144
-1 -1 6415 1;
#X obj 123 -74 inlet;
#X connect 2 0 3 0;
#X connect 3 0 1 0;
#X connect 4 0 5 0;
#X connect 5 0 3 1;
#X connect 6 0 18 0;
#X connect 7 0 6 0;
#X connect 8 0 9 0;
#X connect 9 0 10 0;
#X connect 10 0 7 0;
#X connect 18 0 8 0;
#X connect 18 0 4 0;
#X connect 19 0 18 0;
#X coords 0 -1 1 1 34 131 1 0 0;
#X restore 117 139 pd ARGO;
#X obj -43 135 active;
#N canvas 424 161 167 191 clic 0;
#X obj 23 17 MouseState;
#X obj 23 82 &;
#X obj 23 100 == 0;
#X obj 23 136 s \$0-SendClic;
#X obj 48 51 t b f;
#X obj 23 118 metro 200;
#X obj 94 17 inlet;
#X connect 0 0 1 0;
#X connect 1 0 2 0;
#X connect 2 0 5 0;
#X connect 4 0 1 0;
#X connect 4 1 1 1;
#X connect 5 0 3 0;
#X connect 6 0 4 0;
#X restore -43 156 pd clic;
#N canvas 172 173 459 409 ARGO 0;
#X obj 101 101 cnv 30 32 129 empty empty empty 20 12 0 14 -261299 -66577
0;
#X obj 101 101 cnv 4 10 4 empty empty empty 20 12 0 14 -1 -66577 0
;
#X obj 102 108 vu 8 120 \$0-B empty 0 0 1 9 -262144 -1 1 0;
#X obj 75 30 env~;
#X obj 115 4 inlet~;
#X obj 74 53 - 100;
#X obj 114 53 env~;
#X obj 113 76 - 100;
#X obj 115 31 peakamp~ 1000;
#X text 12 234 comment;
#X connect 3 0 5 0;
#X connect 4 0 3 0;
#X connect 4 0 8 0;
#X connect 5 0 2 0;
#X connect 6 0 7 0;
#X connect 7 0 2 1;
#X connect 8 0 6 0;
#X coords 0 -1 1 1 34 131 2 100 100;
#X restore 171 139 pd ARGO;
#X msg 841 448 55;
#X text 453 264 55ms \, 55% feedback;
#X text 623 221 65ms \, 65% feedback;
#X text 622 244 75ms \, 75% feedback;
#X msg 840 472 65;
#X msg 840 496 75;
#X msg 653 629 220;
#X msg 653 572 440;
#X msg 161 563 2;
#X msg 380 607 220;
#N canvas 153 112 891 631 pitchshifter 0;
#X floatatom 102 122 3 -36 36 0 - - -;
#X obj 172 408 *~;
#X obj 295 345 line~;
#X obj 295 319 pack 0 200;
#X obj 109 193 exp;
#X floatatom 109 219 6 0 0 0 - - -;
#X obj 109 309 /;
#X obj 236 239 * 0.001;
#X obj 404 415 line~;
#X obj 404 390 pack 0 200;
#X obj 172 434 +~;
#X obj 109 460 cos~;
#X obj 109 487 *~;
#X obj 186 529 +~;
#X obj 196 367 wrap~;
#X obj 341 410 *~;
#X obj 341 443 +~;
#X obj 296 474 cos~;
#X obj 296 501 *~;
#X obj 236 266 t b f;
#X floatatom 109 335 6 0 0 0 - - -;
#X obj 196 340 +~ 0.5;
#X obj 109 408 -~ 0.5;
#X obj 109 434 *~ 0.5;
#X obj 278 409 -~ 0.5;
#X obj 278 442 *~ 0.5;
#X obj 109 246 - 1;
#X obj 109 167 * 0.05776;
#X obj 109 272 * -1;
#X text 172 213 speed;
#X text 171 227 change;
#X text 144 302 tape head;
#X obj 109 366 phasor~;
#X obj 404 366 max 1.5;
#X obj 316 212 max 1;
#X text 145 315 rotation freq;
#X obj 195 84 delwrite~ \$0psh-del 5000;
#X obj 163 468 vd~ \$0psh-del;
#X obj 354 473 vd~ \$0psh-del;
#X msg 404 314 0;
#X msg 337 187 100;
#X text 376 192 <--window (msec);
#X obj 145 54 inlet~;
#X obj 576 52 inlet~;
#X obj 548 83 delwrite~ \$0psh-delr 5000;
#X text 477 357 delay;
#X obj 423 49 loadbang;
#X obj 184 561 outlet~;
#X text 348 114 PITCH SHIFTER from pd doc;
#X text 685 166 copy n paste for stereo;
#X obj 627 401 *~;
#X obj 750 338 line~;
#X obj 750 312 pack 0 200;
#X obj 564 186 exp;
#X floatatom 564 212 6 0 0 0 - - -;
#X obj 564 302 /;
#X obj 691 232 * 0.001;
#X obj 859 408 line~;
#X obj 859 383 pack 0 200;
#X obj 627 427 +~;
#X obj 564 453 cos~;
#X obj 564 480 *~;
#X obj 641 522 +~;
#X obj 651 360 wrap~;
#X obj 796 403 *~;
#X obj 796 436 +~;
#X obj 751 467 cos~;
#X obj 751 494 *~;
#X obj 691 259 t b f;
#X floatatom 564 328 6 0 0 0 - - -;
#X obj 651 333 +~ 0.5;
#X obj 564 401 -~ 0.5;
#X obj 564 427 *~ 0.5;
#X obj 733 402 -~ 0.5;
#X obj 733 435 *~ 0.5;
#X obj 564 239 - 1;
#X obj 564 160 * 0.05776;
#X obj 564 265 * -1;
#X obj 564 359 phasor~;
#X obj 859 359 max 1.5;
#X obj 771 205 max 1;
#X obj 610 458 vd~ \$0psh-delr;
#X obj 809 466 vd~ \$0psh-delr;
#X obj 636 561 outlet~;
#X msg 63 57 set \$1;
#X msg 80 86 16;
#X obj 745 20 inlet;
#X text 128 122 transpose;
#X connect 0 0 27 0;
#X connect 0 0 76 0;
#X connect 0 0 84 0;
#X connect 1 0 10 0;
#X connect 2 0 1 1;
#X connect 2 0 15 1;
#X connect 3 0 2 0;
#X connect 4 0 5 0;
#X connect 5 0 26 0;
#X connect 6 0 20 0;
#X connect 7 0 19 0;
#X connect 8 0 10 1;
#X connect 8 0 16 1;
#X connect 9 0 8 0;
#X connect 10 0 37 0;
#X connect 11 0 12 0;
#X connect 12 0 13 0;
#X connect 13 0 47 0;
#X connect 14 0 15 0;
#X connect 14 0 24 0;
#X connect 15 0 16 0;
#X connect 16 0 38 0;
#X connect 17 0 18 0;
#X connect 18 0 13 1;
#X connect 19 0 6 0;
#X connect 19 1 6 1;
#X connect 20 0 32 0;
#X connect 21 0 14 0;
#X connect 22 0 23 0;
#X connect 23 0 11 0;
#X connect 24 0 25 0;
#X connect 25 0 17 0;
#X connect 26 0 28 0;
#X connect 27 0 4 0;
#X connect 28 0 6 0;
#X connect 32 0 1 0;
#X connect 32 0 22 0;
#X connect 32 0 21 0;
#X connect 33 0 9 0;
#X connect 34 0 7 0;
#X connect 34 0 3 0;
#X connect 37 0 12 1;
#X connect 38 0 18 1;
#X connect 39 0 33 0;
#X connect 39 0 79 0;
#X connect 40 0 34 0;
#X connect 40 0 80 0;
#X connect 42 0 36 0;
#X connect 43 0 44 0;
#X connect 46 0 40 0;
#X connect 46 0 39 0;
#X connect 46 0 85 0;
#X connect 50 0 59 0;
#X connect 51 0 50 1;
#X connect 51 0 64 1;
#X connect 52 0 51 0;
#X connect 53 0 54 0;
#X connect 54 0 75 0;
#X connect 55 0 69 0;
#X connect 56 0 68 0;
#X connect 57 0 59 1;
#X connect 57 0 65 1;
#X connect 58 0 57 0;
#X connect 59 0 81 0;
#X connect 60 0 61 0;
#X connect 61 0 62 0;
#X connect 62 0 83 0;
#X connect 63 0 64 0;
#X connect 63 0 73 0;
#X connect 64 0 65 0;
#X connect 65 0 82 0;
#X connect 66 0 67 0;
#X connect 67 0 62 1;
#X connect 68 0 55 0;
#X connect 68 1 55 1;
#X connect 69 0 78 0;
#X connect 70 0 63 0;
#X connect 71 0 72 0;
#X connect 72 0 60 0;
#X connect 73 0 74 0;
#X connect 74 0 66 0;
#X connect 75 0 77 0;
#X connect 76 0 53 0;
#X connect 77 0 55 0;
#X connect 78 0 50 0;
#X connect 78 0 71 0;
#X connect 78 0 70 0;
#X connect 79 0 58 0;
#X connect 80 0 56 0;
#X connect 80 0 52 0;
#X connect 81 0 61 1;
#X connect 82 0 67 1;
#X connect 84 0 85 0;
#X connect 85 0 0 0;
#X connect 86 0 0 0;
#X coords 0 -1 1 1 100 40 1 100 100;
#X restore 611 276 pd pitchshifter;
#X text 233 284 reset parameters;
#X obj 694 14 inlet~;
#X text 738 14 sound in;
#X obj -10 421 outlet~;
#X text 102 359 REVERB;
#X obj 117 283 tgl 18 1 \$0-SendOnOff \$0-ReceiveOnOff On/Off 20 9
0 12 -260097 -1 -1 1 1;
#X obj 273 319 spigot~;
#X obj 702 66 inlet;
#X obj 745 66 inlet;
#X text 722 48 midi;
#X connect 1 0 13 2;
#X connect 2 0 13 1;
#X connect 4 0 102 0;
#X connect 4 0 7 0;
#X connect 5 0 11 0;
#X connect 5 0 101 0;
#X connect 6 0 102 0;
#X connect 6 0 101 0;
#X connect 7 0 2 0;
#X connect 11 0 1 0;
#X connect 12 0 4 0;
#X connect 13 0 24 0;
#X connect 14 0 24 1;
#X connect 15 0 24 2;
#X connect 17 0 20 0;
#X connect 17 0 21 0;
#X connect 18 0 95 0;
#X connect 19 0 99 0;
#X connect 19 0 100 0;
#X connect 20 0 14 0;
#X connect 21 0 15 0;
#X connect 22 0 99 0;
#X connect 23 0 25 0;
#X connect 24 0 28 0;
#X connect 25 0 26 0;
#X connect 26 0 15 0;
#X connect 26 0 14 0;
#X connect 28 0 105 0;
#X connect 29 0 28 1;
#X connect 30 0 28 2;
#X connect 31 0 28 3;
#X connect 33 0 34 0;
#X connect 33 0 35 0;
#X connect 34 0 29 0;
#X connect 34 0 31 0;
#X connect 35 0 30 0;
#X connect 36 0 104 0;
#X connect 36 0 43 0;
#X connect 36 0 44 0;
#X connect 37 0 104 0;
#X connect 37 0 43 0;
#X connect 37 0 45 0;
#X connect 38 0 104 0;
#X connect 38 0 43 0;
#X connect 38 0 46 0;
#X connect 41 0 104 0;
#X connect 41 0 43 0;
#X connect 41 0 47 0;
#X connect 43 0 31 0;
#X connect 44 0 29 0;
#X connect 45 0 29 0;
#X connect 46 0 29 0;
#X connect 47 0 29 0;
#X connect 48 0 54 0;
#X connect 48 0 43 0;
#X connect 48 0 104 0;
#X connect 49 0 103 0;
#X connect 49 0 43 0;
#X connect 49 0 104 0;
#X connect 51 0 53 0;
#X connect 51 0 43 0;
#X connect 51 0 104 0;
#X connect 53 0 29 0;
#X connect 54 0 29 0;
#X connect 55 0 60 0;
#X connect 55 0 43 0;
#X connect 55 0 104 0;
#X connect 56 0 59 0;
#X connect 56 0 43 0;
#X connect 56 0 104 0;
#X connect 59 0 29 0;
#X connect 60 0 29 0;
#X connect 62 0 91 0;
#X connect 63 0 62 1;
#X connect 64 0 62 2;
#X connect 65 0 62 3;
#X connect 66 0 62 4;
#X connect 67 0 62 5;
#X connect 68 0 62 6;
#X connect 69 0 62 7;
#X connect 70 0 63 0;
#X connect 71 0 64 0;
#X connect 72 0 65 0;
#X connect 73 0 66 0;
#X connect 74 0 67 0;
#X connect 75 0 68 0;
#X connect 76 0 69 0;
#X connect 76 0 74 0;
#X connect 77 0 70 0;
#X connect 77 0 71 0;
#X connect 77 0 72 0;
#X connect 77 0 73 0;
#X connect 77 0 74 0;
#X connect 77 0 75 0;
#X connect 77 0 76 0;
#X connect 85 0 70 0;
#X connect 85 0 71 0;
#X connect 85 0 72 0;
#X connect 85 0 73 0;
#X connect 85 0 74 0;
#X connect 85 0 75 0;
#X connect 85 0 76 0;
#X connect 91 0 94 0;
#X connect 91 0 109 0;
#X connect 92 0 93 0;
#X connect 95 0 15 0;
#X connect 95 0 14 0;
#X connect 99 0 15 0;
#X connect 99 0 14 0;
#X connect 100 0 14 0;
#X connect 100 0 15 0;
#X connect 101 0 2 0;
#X connect 102 0 1 0;
#X connect 103 0 29 0;
#X connect 104 0 30 0;
#X connect 105 0 62 0;
#X connect 107 0 112 0;
#X connect 111 0 112 1;
#X connect 112 1 13 0;
#X connect 113 0 105 2;
#X connect 114 0 91 1;
#X coords 0 -1 1 1 650 240 1 100 100;
