#N canvas 185 69 606 426 10;
#X obj 45 205 inlet~;
#X obj 45 273 +~;
#X obj 96 273 +~;
#X obj 96 203 inlet~;
#X obj 175 229 -~;
#X obj 226 229 +~;
#X obj 276 228 -~;
#X obj 325 222 +~;
#X obj 148 320 lop~ 5000;
#X obj 253 320 lop~ 5000;
#X obj 358 322 lop~ 5000;
#X obj 462 321 lop~ 5000;
#X obj 148 346 delwrite~ \$1 300;
#X obj 253 346 delwrite~ \$2 300;
#X obj 358 346 delwrite~ \$3 300;
#X obj 462 346 delwrite~ \$4 300;
#X obj 311 189 -~;
#X obj 165 184 +~;
#X obj 200 185 -~;
#X obj 271 187 +~;
#X obj 158 125 delread~ \$1 149;
#X obj 213 150 delread~ \$2 173;
#X obj 271 120 delread~ \$3 189;
#X obj 324 148 delread~ \$4 200;
#X obj 213 100 * 0.943;
#X obj 271 99 * 0.865;
#X obj 324 98 * 0.742;
#X obj 158 26 inlet;
#X text 156 9 room;
#X obj 383 30 inlet;
#X text 381 13 rt0;
#X obj 511 60 inlet;
#X text 506 44 lowpass;
#X obj 383 226 / 200;
#X obj 511 271 f;
#X obj 158 62 expr $i1*0.00787*254;
#X obj 59 402 outlet~;
#X obj 189 402 outlet~;
#X obj 175 258 *~ 0;
#X obj 226 258 *~ 0;
#X obj 276 260 *~ 0;
#X obj 325 259 *~ 0;
#X connect 0 0 1 0;
#X connect 1 0 8 0;
#X connect 2 0 9 0;
#X connect 3 0 2 0;
#X connect 4 0 38 0;
#X connect 5 0 39 0;
#X connect 6 0 40 0;
#X connect 7 0 41 0;
#X connect 8 0 12 0;
#X connect 9 0 13 0;
#X connect 10 0 14 0;
#X connect 11 0 15 0;
#X connect 16 0 6 1;
#X connect 16 0 7 1;
#X connect 17 0 7 0;
#X connect 17 0 6 0;
#X connect 18 0 4 1;
#X connect 18 0 5 0;
#X connect 19 0 4 0;
#X connect 19 0 5 1;
#X connect 20 0 17 0;
#X connect 20 0 18 0;
#X connect 21 0 17 1;
#X connect 21 0 18 1;
#X connect 22 0 19 0;
#X connect 22 0 16 0;
#X connect 23 0 19 1;
#X connect 23 0 16 1;
#X connect 24 0 21 0;
#X connect 25 0 22 0;
#X connect 26 0 23 0;
#X connect 27 0 35 0;
#X connect 29 0 33 0;
#X connect 31 0 34 0;
#X connect 33 0 38 1;
#X connect 33 0 39 1;
#X connect 33 0 40 1;
#X connect 33 0 41 1;
#X connect 34 0 8 1;
#X connect 34 0 9 1;
#X connect 34 0 10 1;
#X connect 34 0 11 1;
#X connect 35 0 20 0;
#X connect 35 0 24 0;
#X connect 35 0 25 0;
#X connect 35 0 26 0;
#X connect 38 0 1 1;
#X connect 38 0 36 0;
#X connect 39 0 37 0;
#X connect 40 0 10 0;
#X connect 40 0 36 0;
#X connect 41 0 11 0;
#X connect 41 0 37 0;
