#N canvas 307 98 488 444 10;
#X obj 26 19 inlet~;
#X obj 26 112 +~;
#X obj 51 112 -~;
#X obj 25 184 +~;
#X obj 50 184 -~;
#X obj 24 266 +~;
#X obj 49 266 -~;
#X obj 84 239 delread~ \$3 10.645;
#X obj 84 218 delwrite~ \$3 10.645;
#X obj 85 157 delread~ \$2 13.364;
#X obj 85 136 delwrite~ \$2 13.364;
#X obj 86 78 delread~ \$1 15.392;
#X obj 86 58 delwrite~ \$1 15.392;
#X obj 27 347 +~;
#X obj 52 347 -~;
#X obj 88 297 delwrite~ \$4 6.4325;
#X obj 85 320 delread~ \$4 6.4325;
#X obj 98 379 delwrite~ \$5 4.536;
#X obj 95 402 delread~ \$5 4.536;
#X obj 17 429 outlet~;
#X obj 73 429 outlet~;
#X connect 0 0 1 0;
#X connect 0 0 2 0;
#X connect 0 0 12 0;
#X connect 1 0 3 0;
#X connect 1 0 4 0;
#X connect 2 0 10 0;
#X connect 3 0 5 0;
#X connect 3 0 6 0;
#X connect 4 0 8 0;
#X connect 5 0 13 0;
#X connect 5 0 14 0;
#X connect 6 0 15 0;
#X connect 7 0 5 1;
#X connect 7 0 6 1;
#X connect 9 0 3 1;
#X connect 9 0 4 1;
#X connect 11 0 1 1;
#X connect 11 0 2 1;
#X connect 13 0 19 0;
#X connect 14 0 17 0;
#X connect 16 0 13 1;
#X connect 16 0 14 1;
#X connect 18 0 20 0;
