#N canvas 187 206 305 403 10;
#X obj 24 50 inlet~;
#X obj 24 163 +~;
#X obj 49 163 -~;
#X obj 24 248 +~;
#X obj 49 248 -~;
#X obj 84 50 inlet~;
#X obj 24 350 outlet~;
#X obj 49 322 outlet~;
#X obj 84 115 delwrite~ \$1 43.392;
#X obj 84 136 delread~ \$1 43.392;
#X obj 49 185 delwrite~ \$2 25.364;
#X obj 62 207 delread~ \$2 25.364;
#X obj 49 273 delwrite~ \$3 20.645;
#X obj 49 295 delread~ \$3 20.645;
#X connect 0 0 1 0;
#X connect 0 0 2 0;
#X connect 1 0 3 0;
#X connect 1 0 4 0;
#X connect 2 0 10 0;
#X connect 3 0 6 0;
#X connect 4 0 12 0;
#X connect 5 0 8 0;
#X connect 9 0 1 1;
#X connect 9 0 2 1;
#X connect 11 0 3 1;
#X connect 11 0 4 1;
#X connect 13 0 7 0;
