#N canvas 34 77 547 260 10;
#X obj 102 42 inlet;
#X obj 169 41 inlet;
#X msg 102 133 short \$1;
#X msg 169 134 long \$1;
#X obj 226 41 inlet;
#X msg 226 134 rev \$1;
#X obj 285 39 inlet;
#X msg 285 135 lp \$1;
#X obj 333 38 inlet;
#X obj 393 36 inlet;
#X msg 333 134 rt0 \$1;
#X msg 393 133 room \$1;
#X obj 102 211 outlet;
#X obj 102 81 - 15;
#X obj 169 80 - 9;
#X obj 454 37 inlet;
#X msg 454 132 vol \$1;
#X connect 0 0 13 0;
#X connect 1 0 14 0;
#X connect 2 0 12 0;
#X connect 3 0 12 0;
#X connect 4 0 5 0;
#X connect 5 0 12 0;
#X connect 6 0 7 0;
#X connect 7 0 12 0;
#X connect 8 0 10 0;
#X connect 9 0 11 0;
#X connect 10 0 12 0;
#X connect 11 0 12 0;
#X connect 13 0 2 0;
#X connect 14 0 3 0;
#X connect 15 0 16 0;
#X connect 16 0 12 0;
