#N canvas 276 163 572 362 10;
#X obj 262 134 dbfader2 50;
#X obj 285 339 outlet~;
#X obj 346 339 outlet~;
#X obj 24 38 inlet~;
#X obj 24 58 hip~ 5;
#X obj 69 38 noise~;
#X obj 69 58 *~ 0.0001;
#X obj 145 197 dbfader2 50;
#X obj 285 311 dbfader2 50;
#X obj 285 277 dbfader2 50;
#X obj 260 96 route short long rev room rt0 lp vol;
#X obj 260 66 rev-cheep-edit _______________________;
#X obj 436 198 mtof;
#X obj 435 179 + 36;
#X obj 260 32 inlet;
#X obj 297 32 inlet;
#X obj 334 32 inlet;
#X obj 371 32 inlet;
#X obj 408 32 inlet;
#X obj 445 32 inlet;
#X obj 483 32 inlet;
#X obj -43 103 rev-cheep-short \$0-st1 \$0-st2 \$0-st3 \$0-st4 \$0-st5
;
#X obj -17 144 rev-cheep-long \$0-lo1 \$0-lo2 \$0-lo3;
#X obj -2 231 rev-cheep-reverb \$0-rv1 \$0-rv2 \$0-rv3 \$0-rv4;
#X connect 0 0 8 0;
#X connect 0 1 8 1;
#X connect 3 0 4 0;
#X connect 4 0 21 0;
#X connect 4 0 23 1;
#X connect 4 0 23 0;
#X connect 5 0 6 0;
#X connect 6 0 21 0;
#X connect 7 0 8 0;
#X connect 7 1 8 1;
#X connect 8 0 1 0;
#X connect 8 1 2 0;
#X connect 9 0 8 0;
#X connect 9 1 8 1;
#X connect 10 0 0 2;
#X connect 10 1 7 2;
#X connect 10 2 9 2;
#X connect 10 3 23 2;
#X connect 10 4 23 3;
#X connect 10 5 13 0;
#X connect 10 6 8 2;
#X connect 11 0 10 0;
#X connect 12 0 23 4;
#X connect 13 0 12 0;
#X connect 14 0 11 0;
#X connect 15 0 11 1;
#X connect 16 0 11 2;
#X connect 17 0 11 3;
#X connect 18 0 11 4;
#X connect 19 0 11 5;
#X connect 20 0 11 6;
#X connect 21 0 0 0;
#X connect 21 0 22 0;
#X connect 21 0 23 0;
#X connect 21 1 0 1;
#X connect 21 1 22 1;
#X connect 21 1 23 1;
#X connect 22 0 7 0;
#X connect 22 0 23 0;
#X connect 22 1 7 1;
#X connect 22 1 23 1;
#X connect 23 0 9 0;
#X connect 23 1 9 1;
