#N canvas 309 33 1020 724 10;
#X obj 10 39 hsl 200 15 0 1 0 1 empty empty empty -2 -8 0 10 -262144
-1 -1 10900 1;
#X obj 10 17 hsl 200 15 0 1 0 1 empty empty empty -2 -8 0 10 -262144
-1 -1 0 1;
#X obj 243 26 bng 15 250 50 0 empty empty play 17 7 0 10 -262144 -1
-1;
#X obj -9 156 pack 0 0;
#X obj -9 129 f;
#X obj 35 127 f;
#X floatatom 6 104 0 0 0 0 - - -;
#X floatatom 50 103 0 0 0 0 - - -;
#X obj 118 153 soundfiler;
#X floatatom 118 174 8 0 0 0 - - -;
#X obj 119 79 openpanel;
#X obj 243 8 bng 15 250 50 0 empty empty load 17 7 0 10 -262144 -1
-1;
#X obj 6 79 *;
#X obj 50 80 *;
#X msg -7 182 \$1 \$2;
#X obj -6 388 *~;
#X obj 9 358 line~;
#X obj 92 313 t b;
#X msg -24 332 1 5;
#X msg 9 331 0 5;
#X obj 92 289 del 5;
#X obj -6 513 outlet~;
#X obj 243 44 tgl 15 0 empty empty loop 17 7 0 10 -262144 -1 -1 1 1
;
#X obj 92 262 spigot;
#X obj 7 -63 loadbang;
#X obj 197 153 table \$0-lied3;
#X msg 35 -32 1;
#X msg 7 -32 0;
#X obj 186 79 loadbang;
#X obj 186 103 f \$0;
#X msg 119 127 read -maxsize 2e+07 -resize \$1 \$2-lied3;
#X obj 119 104 pack s f;
#X obj -7 209 tabplay~ \$0-lied3;
#X obj 220 10 vsl 15 48 0 1.25 0 0 empty empty empty 0 -9 0 10 -262144
-1 -1 3760 1;
#X obj 221 297 line~;
#X msg 221 276 \$1 100;
#X obj 220 -52 loadbang;
#X obj 280 -30 inlet;
#X text 320 -37 control volume/use ctlin;
#X text 320 -25 range 0-10;
#X obj 221 254 * 5;
#X obj -6 480 *~;
#X obj 9 413 pow~ 10000;
#X obj 9 447 /~ 10000;
#X text 18 429 -> 1..100000;
#X text 18 463 -> 0.0001..10 = -80dB..20dB;
#X msg 220 -30 1;
#X connect 0 0 13 0;
#X connect 1 0 12 0;
#X connect 2 0 5 0;
#X connect 2 0 4 0;
#X connect 3 0 14 0;
#X connect 4 0 3 0;
#X connect 5 0 3 1;
#X connect 6 0 4 1;
#X connect 7 0 5 1;
#X connect 8 0 9 0;
#X connect 9 0 13 1;
#X connect 9 0 12 1;
#X connect 10 0 31 0;
#X connect 11 0 10 0;
#X connect 12 0 6 0;
#X connect 13 0 7 0;
#X connect 14 0 32 0;
#X connect 15 0 41 0;
#X connect 16 0 15 1;
#X connect 17 0 18 0;
#X connect 18 0 16 0;
#X connect 19 0 16 0;
#X connect 20 0 2 0;
#X connect 20 0 17 0;
#X connect 22 0 23 1;
#X connect 23 0 20 0;
#X connect 24 0 22 0;
#X connect 24 0 27 0;
#X connect 24 0 26 0;
#X connect 26 0 0 0;
#X connect 27 0 1 0;
#X connect 28 0 29 0;
#X connect 29 0 31 1;
#X connect 30 0 8 0;
#X connect 31 0 30 0;
#X connect 32 0 15 0;
#X connect 32 1 19 0;
#X connect 32 1 23 0;
#X connect 33 0 42 0;
#X connect 35 0 34 0;
#X connect 36 0 46 0;
#X connect 37 0 33 0;
#X connect 40 0 35 0;
#X connect 41 0 21 0;
#X connect 42 0 43 0;
#X connect 43 0 41 1;
#X connect 46 0 33 0;
#X coords 0 0 1 1 290 65 1 0 0;
